<mxfile host="app.diagrams.net" modified="2021-05-18T10:09:33.131Z" agent="5.0 (Windows NT 10.0; Win64; x64) AppleWebKit/537.36 (KHTML, like Gecko) Chrome/90.0.4430.212 Safari/537.36" etag="H9GVIGHu8T68T5CvkCUD" version="14.6.13" type="github" pages="3">
  <diagram name="Page-1" id="c37626ed-c26b-45fb-9056-f9ebc6bb27b6">
    <mxGraphModel dx="1447" dy="818" grid="1" gridSize="10" guides="1" tooltips="1" connect="1" arrows="1" fold="1" page="1" pageScale="1" pageWidth="1100" pageHeight="850" background="#ffffff" math="0" shadow="0">
      <root>
        <mxCell id="0" />
        <mxCell id="1" parent="0" />
        <mxCell id="o-pjBxPzCX335jj4b9ii-61" value="" style="rounded=0;whiteSpace=wrap;html=1;fillColor=#f5f5f5;strokeColor=#666666;fontColor=#333333;" parent="1" vertex="1">
          <mxGeometry x="255" y="70" width="830" height="710" as="geometry" />
        </mxCell>
        <mxCell id="o-pjBxPzCX335jj4b9ii-25" style="edgeStyle=orthogonalEdgeStyle;shape=link;rounded=0;orthogonalLoop=1;jettySize=auto;html=1;entryX=0.5;entryY=0;entryDx=0;entryDy=0;entryPerimeter=0;" parent="1" source="o-pjBxPzCX335jj4b9ii-21" target="o-pjBxPzCX335jj4b9ii-22" edge="1">
          <mxGeometry relative="1" as="geometry" />
        </mxCell>
        <mxCell id="o-pjBxPzCX335jj4b9ii-21" value="" style="shape=mxgraph.cisco.security.ios_firewall;html=1;pointerEvents=1;dashed=0;fillColor=#036897;strokeColor=#ffffff;strokeWidth=2;verticalLabelPosition=bottom;verticalAlign=top;align=center;outlineConnect=0;" parent="1" vertex="1">
          <mxGeometry x="375" y="130" width="80" height="90" as="geometry" />
        </mxCell>
        <mxCell id="o-pjBxPzCX335jj4b9ii-27" style="rounded=0;orthogonalLoop=1;jettySize=auto;html=1;entryX=0;entryY=0.5;entryDx=0;entryDy=0;entryPerimeter=0;endArrow=none;endFill=0;" parent="1" source="o-pjBxPzCX335jj4b9ii-22" target="o-pjBxPzCX335jj4b9ii-23" edge="1">
          <mxGeometry relative="1" as="geometry" />
        </mxCell>
        <mxCell id="o-pjBxPzCX335jj4b9ii-64" value="" style="edgeStyle=orthogonalEdgeStyle;rounded=0;orthogonalLoop=1;jettySize=auto;html=1;fontSize=24;endArrow=none;endFill=0;" parent="1" source="o-pjBxPzCX335jj4b9ii-22" target="o-pjBxPzCX335jj4b9ii-46" edge="1">
          <mxGeometry relative="1" as="geometry" />
        </mxCell>
        <mxCell id="o-pjBxPzCX335jj4b9ii-22" value="" style="shape=mxgraph.cisco.switches.workgroup_switch;html=1;pointerEvents=1;dashed=0;fillColor=#036897;strokeColor=#ffffff;strokeWidth=2;verticalLabelPosition=bottom;verticalAlign=top;align=center;outlineConnect=0;" parent="1" vertex="1">
          <mxGeometry x="375" y="350" width="80" height="50" as="geometry" />
        </mxCell>
        <mxCell id="o-pjBxPzCX335jj4b9ii-23" value="" style="shape=mxgraph.cisco.routers.router;html=1;pointerEvents=1;dashed=0;fillColor=#036897;strokeColor=#ffffff;strokeWidth=2;verticalLabelPosition=bottom;verticalAlign=top;align=center;outlineConnect=0;" parent="1" vertex="1">
          <mxGeometry x="755" y="348.5" width="78" height="53" as="geometry" />
        </mxCell>
        <mxCell id="o-pjBxPzCX335jj4b9ii-30" style="edgeStyle=none;rounded=0;orthogonalLoop=1;jettySize=auto;html=1;exitX=0.13;exitY=0.77;exitDx=0;exitDy=0;exitPerimeter=0;entryX=0.88;entryY=0.1;entryDx=0;entryDy=0;entryPerimeter=0;endArrow=none;endFill=0;" parent="1" source="o-pjBxPzCX335jj4b9ii-24" target="o-pjBxPzCX335jj4b9ii-23" edge="1">
          <mxGeometry relative="1" as="geometry" />
        </mxCell>
        <mxCell id="o-pjBxPzCX335jj4b9ii-24" value="Regulator" style="ellipse;shape=cloud;whiteSpace=wrap;html=1;" parent="1" vertex="1">
          <mxGeometry x="915" y="160" width="120" height="80" as="geometry" />
        </mxCell>
        <mxCell id="o-pjBxPzCX335jj4b9ii-31" style="edgeStyle=none;rounded=0;orthogonalLoop=1;jettySize=auto;html=1;exitX=0.13;exitY=0.77;exitDx=0;exitDy=0;exitPerimeter=0;entryX=1;entryY=0.5;entryDx=0;entryDy=0;entryPerimeter=0;endArrow=none;endFill=0;" parent="1" source="o-pjBxPzCX335jj4b9ii-28" target="o-pjBxPzCX335jj4b9ii-23" edge="1">
          <mxGeometry relative="1" as="geometry" />
        </mxCell>
        <mxCell id="o-pjBxPzCX335jj4b9ii-28" value="&lt;span&gt;Regulator&lt;/span&gt;" style="ellipse;shape=cloud;whiteSpace=wrap;html=1;" parent="1" vertex="1">
          <mxGeometry x="915" y="268.5" width="120" height="80" as="geometry" />
        </mxCell>
        <mxCell id="o-pjBxPzCX335jj4b9ii-33" style="edgeStyle=none;rounded=0;orthogonalLoop=1;jettySize=auto;html=1;exitX=0.07;exitY=0.4;exitDx=0;exitDy=0;exitPerimeter=0;endArrow=none;endFill=0;" parent="1" source="o-pjBxPzCX335jj4b9ii-29" target="o-pjBxPzCX335jj4b9ii-23" edge="1">
          <mxGeometry relative="1" as="geometry" />
        </mxCell>
        <mxCell id="o-pjBxPzCX335jj4b9ii-29" value="&#xa;&#xa;&lt;span style=&quot;color: rgb(0, 0, 0); font-family: helvetica; font-size: 12px; font-style: normal; font-weight: 400; letter-spacing: normal; text-align: center; text-indent: 0px; text-transform: none; word-spacing: 0px; background-color: rgb(248, 249, 250); display: inline; float: none;&quot;&gt;Regulator&lt;/span&gt;&#xa;&#xa;" style="ellipse;shape=cloud;whiteSpace=wrap;html=1;" parent="1" vertex="1">
          <mxGeometry x="915" y="370" width="120" height="80" as="geometry" />
        </mxCell>
        <mxCell id="o-pjBxPzCX335jj4b9ii-34" style="edgeStyle=orthogonalEdgeStyle;shape=link;rounded=0;orthogonalLoop=1;jettySize=auto;html=1;entryX=0.5;entryY=0;entryDx=0;entryDy=0;entryPerimeter=0;" parent="1" edge="1">
          <mxGeometry relative="1" as="geometry">
            <mxPoint x="415" y="540" as="sourcePoint" />
            <mxPoint x="415" y="720" as="targetPoint" />
          </mxGeometry>
        </mxCell>
        <mxCell id="o-pjBxPzCX335jj4b9ii-36" style="rounded=0;orthogonalLoop=1;jettySize=auto;html=1;endArrow=none;endFill=0;entryX=0;entryY=0.5;entryDx=0;entryDy=0;entryPerimeter=0;" parent="1" target="o-pjBxPzCX335jj4b9ii-48" edge="1">
          <mxGeometry relative="1" as="geometry">
            <mxPoint x="455" y="533" as="sourcePoint" />
            <mxPoint x="833" y="533" as="targetPoint" />
          </mxGeometry>
        </mxCell>
        <mxCell id="o-pjBxPzCX335jj4b9ii-51" style="edgeStyle=none;rounded=0;orthogonalLoop=1;jettySize=auto;html=1;exitX=0.96;exitY=0.7;exitDx=0;exitDy=0;exitPerimeter=0;endArrow=none;endFill=0;" parent="1" source="o-pjBxPzCX335jj4b9ii-40" target="o-pjBxPzCX335jj4b9ii-48" edge="1">
          <mxGeometry relative="1" as="geometry" />
        </mxCell>
        <mxCell id="o-pjBxPzCX335jj4b9ii-40" value="&#xa;&#xa;&lt;span style=&quot;color: rgb(0, 0, 0); font-family: helvetica; font-size: 12px; font-style: normal; font-weight: 400; letter-spacing: normal; text-align: center; text-indent: 0px; text-transform: none; word-spacing: 0px; background-color: rgb(248, 249, 250); display: inline; float: none;&quot;&gt;Regulator&lt;/span&gt;&#xa;&#xa;" style="ellipse;shape=cloud;whiteSpace=wrap;html=1;direction=west;" parent="1" vertex="1">
          <mxGeometry x="915" y="500" width="120" height="80" as="geometry" />
        </mxCell>
        <mxCell id="o-pjBxPzCX335jj4b9ii-52" style="edgeStyle=none;rounded=0;orthogonalLoop=1;jettySize=auto;html=1;exitX=0.96;exitY=0.7;exitDx=0;exitDy=0;exitPerimeter=0;entryX=1;entryY=0.5;entryDx=0;entryDy=0;entryPerimeter=0;endArrow=none;endFill=0;" parent="1" source="o-pjBxPzCX335jj4b9ii-42" target="o-pjBxPzCX335jj4b9ii-48" edge="1">
          <mxGeometry relative="1" as="geometry" />
        </mxCell>
        <mxCell id="o-pjBxPzCX335jj4b9ii-42" value="&lt;span&gt;Regulator&lt;/span&gt;" style="ellipse;shape=cloud;whiteSpace=wrap;html=1;direction=west;" parent="1" vertex="1">
          <mxGeometry x="915" y="608.5" width="120" height="80" as="geometry" />
        </mxCell>
        <mxCell id="o-pjBxPzCX335jj4b9ii-46" value="" style="shape=mxgraph.cisco.switches.workgroup_switch;html=1;pointerEvents=1;dashed=0;fillColor=#036897;strokeColor=#ffffff;strokeWidth=2;verticalLabelPosition=bottom;verticalAlign=top;align=center;outlineConnect=0;" parent="1" vertex="1">
          <mxGeometry x="375" y="510" width="80" height="50" as="geometry" />
        </mxCell>
        <mxCell id="o-pjBxPzCX335jj4b9ii-47" value="" style="shape=mxgraph.cisco.security.ios_firewall;html=1;pointerEvents=1;dashed=0;fillColor=#036897;strokeColor=#ffffff;strokeWidth=2;verticalLabelPosition=bottom;verticalAlign=top;align=center;outlineConnect=0;" parent="1" vertex="1">
          <mxGeometry x="375" y="650" width="80" height="90" as="geometry" />
        </mxCell>
        <mxCell id="o-pjBxPzCX335jj4b9ii-48" value="" style="shape=mxgraph.cisco.routers.router;html=1;pointerEvents=1;dashed=0;fillColor=#036897;strokeColor=#ffffff;strokeWidth=2;verticalLabelPosition=bottom;verticalAlign=top;align=center;outlineConnect=0;" parent="1" vertex="1">
          <mxGeometry x="755" y="507" width="78" height="53" as="geometry" />
        </mxCell>
        <mxCell id="o-pjBxPzCX335jj4b9ii-57" style="edgeStyle=orthogonalEdgeStyle;rounded=0;orthogonalLoop=1;jettySize=auto;html=1;exitX=0.5;exitY=1;exitDx=0;exitDy=0;exitPerimeter=0;entryX=1;entryY=0;entryDx=0;entryDy=0;entryPerimeter=0;endArrow=none;endFill=0;" parent="1" source="o-pjBxPzCX335jj4b9ii-53" target="o-pjBxPzCX335jj4b9ii-22" edge="1">
          <mxGeometry relative="1" as="geometry" />
        </mxCell>
        <mxCell id="o-pjBxPzCX335jj4b9ii-53" value="" style="shape=mxgraph.cisco.servers.www_server;html=1;pointerEvents=1;dashed=0;fillColor=#036897;strokeColor=#ffffff;strokeWidth=2;verticalLabelPosition=bottom;verticalAlign=top;align=center;outlineConnect=0;" parent="1" vertex="1">
          <mxGeometry x="505" y="230" width="66" height="67" as="geometry" />
        </mxCell>
        <mxCell id="o-pjBxPzCX335jj4b9ii-58" style="edgeStyle=orthogonalEdgeStyle;rounded=0;orthogonalLoop=1;jettySize=auto;html=1;exitX=0.5;exitY=1;exitDx=0;exitDy=0;exitPerimeter=0;entryX=1;entryY=0;entryDx=0;entryDy=0;entryPerimeter=0;endArrow=none;endFill=0;" parent="1" source="o-pjBxPzCX335jj4b9ii-54" target="o-pjBxPzCX335jj4b9ii-22" edge="1">
          <mxGeometry relative="1" as="geometry" />
        </mxCell>
        <mxCell id="o-pjBxPzCX335jj4b9ii-54" value="" style="shape=mxgraph.cisco.servers.www_server;html=1;pointerEvents=1;dashed=0;fillColor=#036897;strokeColor=#ffffff;strokeWidth=2;verticalLabelPosition=bottom;verticalAlign=top;align=center;outlineConnect=0;" parent="1" vertex="1">
          <mxGeometry x="585" y="230" width="66" height="67" as="geometry" />
        </mxCell>
        <mxCell id="o-pjBxPzCX335jj4b9ii-60" style="edgeStyle=orthogonalEdgeStyle;rounded=0;orthogonalLoop=1;jettySize=auto;html=1;exitX=0.5;exitY=1;exitDx=0;exitDy=0;exitPerimeter=0;endArrow=none;endFill=0;" parent="1" source="o-pjBxPzCX335jj4b9ii-55" edge="1">
          <mxGeometry relative="1" as="geometry">
            <mxPoint x="455" y="350" as="targetPoint" />
          </mxGeometry>
        </mxCell>
        <mxCell id="o-pjBxPzCX335jj4b9ii-55" value="" style="shape=mxgraph.cisco.servers.fileserver;html=1;pointerEvents=1;dashed=0;fillColor=#036897;strokeColor=#ffffff;strokeWidth=2;verticalLabelPosition=bottom;verticalAlign=top;align=center;outlineConnect=0;" parent="1" vertex="1">
          <mxGeometry x="685" y="230" width="50" height="67" as="geometry" />
        </mxCell>
        <mxCell id="o-pjBxPzCX335jj4b9ii-62" value="Extranet" style="text;html=1;align=center;verticalAlign=middle;whiteSpace=wrap;rounded=0;fontStyle=1;fontSize=24;" parent="1" vertex="1">
          <mxGeometry x="605" y="70" width="150" height="50" as="geometry" />
        </mxCell>
        <mxCell id="o-pjBxPzCX335jj4b9ii-65" value="" style="rounded=0;whiteSpace=wrap;html=1;fontSize=24;fillColor=#f5f5f5;strokeColor=#666666;fontColor=#333333;" parent="1" vertex="1">
          <mxGeometry x="15" y="70" width="140" height="710" as="geometry" />
        </mxCell>
        <mxCell id="o-pjBxPzCX335jj4b9ii-66" value="ABN" style="text;html=1;align=center;verticalAlign=middle;whiteSpace=wrap;rounded=0;fontStyle=1;fontSize=24;" parent="1" vertex="1">
          <mxGeometry x="25" y="80" width="120" height="50" as="geometry" />
        </mxCell>
        <mxCell id="o-pjBxPzCX335jj4b9ii-67" value="" style="shape=mxgraph.cisco.switches.workgroup_switch;html=1;pointerEvents=1;dashed=0;fillColor=#036897;strokeColor=#ffffff;strokeWidth=2;verticalLabelPosition=bottom;verticalAlign=top;align=center;outlineConnect=0;" parent="1" vertex="1">
          <mxGeometry x="45" y="340" width="80" height="50" as="geometry" />
        </mxCell>
        <mxCell id="o-pjBxPzCX335jj4b9ii-68" value="" style="shape=mxgraph.cisco.switches.workgroup_switch;html=1;pointerEvents=1;dashed=0;fillColor=#036897;strokeColor=#ffffff;strokeWidth=2;verticalLabelPosition=bottom;verticalAlign=top;align=center;outlineConnect=0;" parent="1" vertex="1">
          <mxGeometry x="45" y="495" width="80" height="50" as="geometry" />
        </mxCell>
        <mxCell id="o-pjBxPzCX335jj4b9ii-73" value="" style="endArrow=classic;startArrow=classic;html=1;fontSize=24;entryX=0.002;entryY=0.184;entryDx=0;entryDy=0;entryPerimeter=0;" parent="1" edge="1">
          <mxGeometry width="50" height="50" relative="1" as="geometry">
            <mxPoint x="155" y="519.5" as="sourcePoint" />
            <mxPoint x="256.65999999999985" y="520.1399999999999" as="targetPoint" />
          </mxGeometry>
        </mxCell>
        <mxCell id="o-pjBxPzCX335jj4b9ii-74" value="" style="endArrow=classic;startArrow=classic;html=1;fontSize=24;entryX=0.002;entryY=0.184;entryDx=0;entryDy=0;entryPerimeter=0;" parent="1" edge="1">
          <mxGeometry width="50" height="50" relative="1" as="geometry">
            <mxPoint x="155" y="364.5" as="sourcePoint" />
            <mxPoint x="256.65999999999985" y="365.1399999999999" as="targetPoint" />
          </mxGeometry>
        </mxCell>
        <mxCell id="o-pjBxPzCX335jj4b9ii-77" value="" style="endArrow=none;dashed=1;html=1;dashPattern=1 3;strokeWidth=2;fontSize=24;" parent="1" source="o-pjBxPzCX335jj4b9ii-61" edge="1">
          <mxGeometry width="50" height="50" relative="1" as="geometry">
            <mxPoint x="285" y="460" as="sourcePoint" />
            <mxPoint x="255" y="463" as="targetPoint" />
            <Array as="points">
              <mxPoint x="1085" y="463" />
            </Array>
          </mxGeometry>
        </mxCell>
        <mxCell id="pIcosIAS9f1F-RVe4xTp-4" style="edgeStyle=orthogonalEdgeStyle;rounded=0;orthogonalLoop=1;jettySize=auto;html=1;exitX=0.5;exitY=0;exitDx=0;exitDy=0;exitPerimeter=0;entryX=0.87;entryY=0.74;entryDx=0;entryDy=0;entryPerimeter=0;endArrow=none;endFill=0;" parent="1" source="pIcosIAS9f1F-RVe4xTp-1" target="o-pjBxPzCX335jj4b9ii-46" edge="1">
          <mxGeometry relative="1" as="geometry">
            <Array as="points">
              <mxPoint x="533" y="570" />
              <mxPoint x="445" y="570" />
            </Array>
          </mxGeometry>
        </mxCell>
        <mxCell id="pIcosIAS9f1F-RVe4xTp-1" value="" style="shape=mxgraph.cisco.servers.www_server;html=1;pointerEvents=1;dashed=0;fillColor=#036897;strokeColor=#ffffff;strokeWidth=2;verticalLabelPosition=bottom;verticalAlign=top;align=center;outlineConnect=0;" parent="1" vertex="1">
          <mxGeometry x="500" y="590" width="66" height="67" as="geometry" />
        </mxCell>
        <mxCell id="pIcosIAS9f1F-RVe4xTp-6" style="edgeStyle=orthogonalEdgeStyle;rounded=0;orthogonalLoop=1;jettySize=auto;html=1;exitX=0.5;exitY=0;exitDx=0;exitDy=0;exitPerimeter=0;entryX=0.87;entryY=0.74;entryDx=0;entryDy=0;entryPerimeter=0;endArrow=none;endFill=0;" parent="1" source="pIcosIAS9f1F-RVe4xTp-2" target="o-pjBxPzCX335jj4b9ii-46" edge="1">
          <mxGeometry relative="1" as="geometry">
            <Array as="points">
              <mxPoint x="613" y="570" />
              <mxPoint x="445" y="570" />
            </Array>
          </mxGeometry>
        </mxCell>
        <mxCell id="pIcosIAS9f1F-RVe4xTp-2" value="" style="shape=mxgraph.cisco.servers.www_server;html=1;pointerEvents=1;dashed=0;fillColor=#036897;strokeColor=#ffffff;strokeWidth=2;verticalLabelPosition=bottom;verticalAlign=top;align=center;outlineConnect=0;" parent="1" vertex="1">
          <mxGeometry x="580" y="590" width="66" height="67" as="geometry" />
        </mxCell>
        <mxCell id="pIcosIAS9f1F-RVe4xTp-7" style="edgeStyle=orthogonalEdgeStyle;rounded=0;orthogonalLoop=1;jettySize=auto;html=1;exitX=0.5;exitY=0;exitDx=0;exitDy=0;exitPerimeter=0;entryX=0.87;entryY=0.74;entryDx=0;entryDy=0;entryPerimeter=0;endArrow=none;endFill=0;" parent="1" source="pIcosIAS9f1F-RVe4xTp-3" target="o-pjBxPzCX335jj4b9ii-46" edge="1">
          <mxGeometry relative="1" as="geometry">
            <Array as="points">
              <mxPoint x="705" y="570" />
              <mxPoint x="445" y="570" />
            </Array>
          </mxGeometry>
        </mxCell>
        <mxCell id="pIcosIAS9f1F-RVe4xTp-3" value="" style="shape=mxgraph.cisco.servers.fileserver;html=1;pointerEvents=1;dashed=0;fillColor=#036897;strokeColor=#ffffff;strokeWidth=2;verticalLabelPosition=bottom;verticalAlign=top;align=center;outlineConnect=0;" parent="1" vertex="1">
          <mxGeometry x="680" y="590" width="50" height="67" as="geometry" />
        </mxCell>
        <mxCell id="pIcosIAS9f1F-RVe4xTp-8" value="Reporting PC" style="text;html=1;align=center;verticalAlign=middle;whiteSpace=wrap;rounded=0;fontStyle=1;fontSize=14;" parent="1" vertex="1">
          <mxGeometry x="513" y="657" width="172" height="50" as="geometry" />
        </mxCell>
        <mxCell id="pIcosIAS9f1F-RVe4xTp-9" value="Reporting PC" style="text;html=1;align=center;verticalAlign=middle;whiteSpace=wrap;rounded=0;fontStyle=1;fontSize=14;" parent="1" vertex="1">
          <mxGeometry x="520" y="180" width="172" height="50" as="geometry" />
        </mxCell>
      </root>
    </mxGraphModel>
  </diagram>
  <diagram name="Copy of Page-1" id="vEk1WuR2lXuOGm8pG6E6">
    <mxGraphModel dx="1240" dy="701" grid="1" gridSize="10" guides="1" tooltips="1" connect="1" arrows="1" fold="1" page="1" pageScale="1" pageWidth="1100" pageHeight="850" background="#ffffff" math="0" shadow="0">
      <root>
        <mxCell id="eqCPospPGm_6_WrWSXjI-0" />
        <mxCell id="eqCPospPGm_6_WrWSXjI-1" parent="eqCPospPGm_6_WrWSXjI-0" />
        <mxCell id="eqCPospPGm_6_WrWSXjI-2" value="" style="rounded=0;whiteSpace=wrap;html=1;fillColor=#f5f5f5;strokeColor=#666666;fontColor=#333333;" vertex="1" parent="eqCPospPGm_6_WrWSXjI-1">
          <mxGeometry x="330" y="70" width="730" height="710" as="geometry" />
        </mxCell>
        <mxCell id="eqCPospPGm_6_WrWSXjI-3" style="edgeStyle=orthogonalEdgeStyle;shape=link;rounded=0;orthogonalLoop=1;jettySize=auto;html=1;entryX=0.5;entryY=0;entryDx=0;entryDy=0;entryPerimeter=0;" edge="1" parent="eqCPospPGm_6_WrWSXjI-1" source="eqCPospPGm_6_WrWSXjI-4" target="eqCPospPGm_6_WrWSXjI-7">
          <mxGeometry relative="1" as="geometry" />
        </mxCell>
        <mxCell id="eqCPospPGm_6_WrWSXjI-4" value="" style="shape=mxgraph.cisco.security.ios_firewall;html=1;pointerEvents=1;dashed=0;fillColor=#036897;strokeColor=#ffffff;strokeWidth=2;verticalLabelPosition=bottom;verticalAlign=top;align=center;outlineConnect=0;" vertex="1" parent="eqCPospPGm_6_WrWSXjI-1">
          <mxGeometry x="375" y="130" width="80" height="90" as="geometry" />
        </mxCell>
        <mxCell id="eqCPospPGm_6_WrWSXjI-5" style="rounded=0;orthogonalLoop=1;jettySize=auto;html=1;entryX=0;entryY=0.5;entryDx=0;entryDy=0;entryPerimeter=0;endArrow=none;endFill=0;" edge="1" parent="eqCPospPGm_6_WrWSXjI-1" source="eqCPospPGm_6_WrWSXjI-7" target="eqCPospPGm_6_WrWSXjI-8">
          <mxGeometry relative="1" as="geometry" />
        </mxCell>
        <mxCell id="eqCPospPGm_6_WrWSXjI-6" value="" style="edgeStyle=orthogonalEdgeStyle;rounded=0;orthogonalLoop=1;jettySize=auto;html=1;fontSize=24;endArrow=none;endFill=0;" edge="1" parent="eqCPospPGm_6_WrWSXjI-1" source="eqCPospPGm_6_WrWSXjI-7" target="eqCPospPGm_6_WrWSXjI-21">
          <mxGeometry relative="1" as="geometry" />
        </mxCell>
        <mxCell id="eqCPospPGm_6_WrWSXjI-7" value="" style="shape=mxgraph.cisco.switches.workgroup_switch;html=1;pointerEvents=1;dashed=0;fillColor=#036897;strokeColor=#ffffff;strokeWidth=2;verticalLabelPosition=bottom;verticalAlign=top;align=center;outlineConnect=0;" vertex="1" parent="eqCPospPGm_6_WrWSXjI-1">
          <mxGeometry x="375" y="350" width="80" height="50" as="geometry" />
        </mxCell>
        <mxCell id="eqCPospPGm_6_WrWSXjI-8" value="" style="shape=mxgraph.cisco.routers.router;html=1;pointerEvents=1;dashed=0;fillColor=#036897;strokeColor=#ffffff;strokeWidth=2;verticalLabelPosition=bottom;verticalAlign=top;align=center;outlineConnect=0;" vertex="1" parent="eqCPospPGm_6_WrWSXjI-1">
          <mxGeometry x="755" y="348.5" width="78" height="53" as="geometry" />
        </mxCell>
        <mxCell id="eqCPospPGm_6_WrWSXjI-9" style="edgeStyle=none;rounded=0;orthogonalLoop=1;jettySize=auto;html=1;exitX=0.13;exitY=0.77;exitDx=0;exitDy=0;exitPerimeter=0;entryX=0.88;entryY=0.1;entryDx=0;entryDy=0;entryPerimeter=0;endArrow=none;endFill=0;" edge="1" parent="eqCPospPGm_6_WrWSXjI-1" source="eqCPospPGm_6_WrWSXjI-10" target="eqCPospPGm_6_WrWSXjI-8">
          <mxGeometry relative="1" as="geometry" />
        </mxCell>
        <mxCell id="eqCPospPGm_6_WrWSXjI-10" value="Regulator" style="ellipse;shape=cloud;whiteSpace=wrap;html=1;" vertex="1" parent="eqCPospPGm_6_WrWSXjI-1">
          <mxGeometry x="915" y="160" width="120" height="80" as="geometry" />
        </mxCell>
        <mxCell id="eqCPospPGm_6_WrWSXjI-11" style="edgeStyle=none;rounded=0;orthogonalLoop=1;jettySize=auto;html=1;exitX=0.13;exitY=0.77;exitDx=0;exitDy=0;exitPerimeter=0;entryX=1;entryY=0.5;entryDx=0;entryDy=0;entryPerimeter=0;endArrow=none;endFill=0;" edge="1" parent="eqCPospPGm_6_WrWSXjI-1" source="eqCPospPGm_6_WrWSXjI-12" target="eqCPospPGm_6_WrWSXjI-8">
          <mxGeometry relative="1" as="geometry" />
        </mxCell>
        <mxCell id="eqCPospPGm_6_WrWSXjI-12" value="&lt;span&gt;Regulator&lt;/span&gt;" style="ellipse;shape=cloud;whiteSpace=wrap;html=1;" vertex="1" parent="eqCPospPGm_6_WrWSXjI-1">
          <mxGeometry x="915" y="268.5" width="120" height="80" as="geometry" />
        </mxCell>
        <mxCell id="eqCPospPGm_6_WrWSXjI-13" style="edgeStyle=none;rounded=0;orthogonalLoop=1;jettySize=auto;html=1;exitX=0.07;exitY=0.4;exitDx=0;exitDy=0;exitPerimeter=0;endArrow=none;endFill=0;" edge="1" parent="eqCPospPGm_6_WrWSXjI-1" source="eqCPospPGm_6_WrWSXjI-14" target="eqCPospPGm_6_WrWSXjI-8">
          <mxGeometry relative="1" as="geometry" />
        </mxCell>
        <mxCell id="eqCPospPGm_6_WrWSXjI-14" value="&#xa;&#xa;&lt;span style=&quot;color: rgb(0, 0, 0); font-family: helvetica; font-size: 12px; font-style: normal; font-weight: 400; letter-spacing: normal; text-align: center; text-indent: 0px; text-transform: none; word-spacing: 0px; background-color: rgb(248, 249, 250); display: inline; float: none;&quot;&gt;Regulator&lt;/span&gt;&#xa;&#xa;" style="ellipse;shape=cloud;whiteSpace=wrap;html=1;" vertex="1" parent="eqCPospPGm_6_WrWSXjI-1">
          <mxGeometry x="915" y="370" width="120" height="80" as="geometry" />
        </mxCell>
        <mxCell id="eqCPospPGm_6_WrWSXjI-15" style="edgeStyle=orthogonalEdgeStyle;shape=link;rounded=0;orthogonalLoop=1;jettySize=auto;html=1;entryX=0.5;entryY=0;entryDx=0;entryDy=0;entryPerimeter=0;" edge="1" parent="eqCPospPGm_6_WrWSXjI-1">
          <mxGeometry relative="1" as="geometry">
            <mxPoint x="415" y="540" as="sourcePoint" />
            <mxPoint x="415" y="720" as="targetPoint" />
          </mxGeometry>
        </mxCell>
        <mxCell id="eqCPospPGm_6_WrWSXjI-16" style="rounded=0;orthogonalLoop=1;jettySize=auto;html=1;endArrow=none;endFill=0;entryX=0;entryY=0.5;entryDx=0;entryDy=0;entryPerimeter=0;" edge="1" parent="eqCPospPGm_6_WrWSXjI-1" target="eqCPospPGm_6_WrWSXjI-23">
          <mxGeometry relative="1" as="geometry">
            <mxPoint x="455" y="533" as="sourcePoint" />
            <mxPoint x="833" y="533" as="targetPoint" />
          </mxGeometry>
        </mxCell>
        <mxCell id="eqCPospPGm_6_WrWSXjI-17" style="edgeStyle=none;rounded=0;orthogonalLoop=1;jettySize=auto;html=1;exitX=0.96;exitY=0.7;exitDx=0;exitDy=0;exitPerimeter=0;endArrow=none;endFill=0;" edge="1" parent="eqCPospPGm_6_WrWSXjI-1" source="eqCPospPGm_6_WrWSXjI-18" target="eqCPospPGm_6_WrWSXjI-23">
          <mxGeometry relative="1" as="geometry" />
        </mxCell>
        <mxCell id="eqCPospPGm_6_WrWSXjI-18" value="&#xa;&#xa;&lt;span style=&quot;color: rgb(0, 0, 0); font-family: helvetica; font-size: 12px; font-style: normal; font-weight: 400; letter-spacing: normal; text-align: center; text-indent: 0px; text-transform: none; word-spacing: 0px; background-color: rgb(248, 249, 250); display: inline; float: none;&quot;&gt;Regulator&lt;/span&gt;&#xa;&#xa;" style="ellipse;shape=cloud;whiteSpace=wrap;html=1;direction=west;" vertex="1" parent="eqCPospPGm_6_WrWSXjI-1">
          <mxGeometry x="915" y="500" width="120" height="80" as="geometry" />
        </mxCell>
        <mxCell id="eqCPospPGm_6_WrWSXjI-19" style="edgeStyle=none;rounded=0;orthogonalLoop=1;jettySize=auto;html=1;exitX=0.96;exitY=0.7;exitDx=0;exitDy=0;exitPerimeter=0;entryX=1;entryY=0.5;entryDx=0;entryDy=0;entryPerimeter=0;endArrow=none;endFill=0;" edge="1" parent="eqCPospPGm_6_WrWSXjI-1" source="eqCPospPGm_6_WrWSXjI-20" target="eqCPospPGm_6_WrWSXjI-23">
          <mxGeometry relative="1" as="geometry" />
        </mxCell>
        <mxCell id="eqCPospPGm_6_WrWSXjI-20" value="&lt;span&gt;Regulator&lt;/span&gt;" style="ellipse;shape=cloud;whiteSpace=wrap;html=1;direction=west;" vertex="1" parent="eqCPospPGm_6_WrWSXjI-1">
          <mxGeometry x="915" y="608.5" width="120" height="80" as="geometry" />
        </mxCell>
        <mxCell id="eqCPospPGm_6_WrWSXjI-21" value="" style="shape=mxgraph.cisco.switches.workgroup_switch;html=1;pointerEvents=1;dashed=0;fillColor=#036897;strokeColor=#ffffff;strokeWidth=2;verticalLabelPosition=bottom;verticalAlign=top;align=center;outlineConnect=0;" vertex="1" parent="eqCPospPGm_6_WrWSXjI-1">
          <mxGeometry x="375" y="510" width="80" height="50" as="geometry" />
        </mxCell>
        <mxCell id="eqCPospPGm_6_WrWSXjI-22" value="" style="shape=mxgraph.cisco.security.ios_firewall;html=1;pointerEvents=1;dashed=0;fillColor=#036897;strokeColor=#ffffff;strokeWidth=2;verticalLabelPosition=bottom;verticalAlign=top;align=center;outlineConnect=0;" vertex="1" parent="eqCPospPGm_6_WrWSXjI-1">
          <mxGeometry x="375" y="650" width="80" height="90" as="geometry" />
        </mxCell>
        <mxCell id="eqCPospPGm_6_WrWSXjI-23" value="" style="shape=mxgraph.cisco.routers.router;html=1;pointerEvents=1;dashed=0;fillColor=#036897;strokeColor=#ffffff;strokeWidth=2;verticalLabelPosition=bottom;verticalAlign=top;align=center;outlineConnect=0;" vertex="1" parent="eqCPospPGm_6_WrWSXjI-1">
          <mxGeometry x="755" y="507" width="78" height="53" as="geometry" />
        </mxCell>
        <mxCell id="eqCPospPGm_6_WrWSXjI-24" style="edgeStyle=orthogonalEdgeStyle;rounded=0;orthogonalLoop=1;jettySize=auto;html=1;exitX=0.5;exitY=1;exitDx=0;exitDy=0;exitPerimeter=0;entryX=1;entryY=0;entryDx=0;entryDy=0;entryPerimeter=0;endArrow=none;endFill=0;" edge="1" parent="eqCPospPGm_6_WrWSXjI-1" source="eqCPospPGm_6_WrWSXjI-25" target="eqCPospPGm_6_WrWSXjI-7">
          <mxGeometry relative="1" as="geometry" />
        </mxCell>
        <mxCell id="eqCPospPGm_6_WrWSXjI-25" value="" style="shape=mxgraph.cisco.servers.www_server;html=1;pointerEvents=1;dashed=0;fillColor=#036897;strokeColor=#ffffff;strokeWidth=2;verticalLabelPosition=bottom;verticalAlign=top;align=center;outlineConnect=0;" vertex="1" parent="eqCPospPGm_6_WrWSXjI-1">
          <mxGeometry x="505" y="230" width="66" height="67" as="geometry" />
        </mxCell>
        <mxCell id="eqCPospPGm_6_WrWSXjI-26" style="edgeStyle=orthogonalEdgeStyle;rounded=0;orthogonalLoop=1;jettySize=auto;html=1;exitX=0.5;exitY=1;exitDx=0;exitDy=0;exitPerimeter=0;entryX=1;entryY=0;entryDx=0;entryDy=0;entryPerimeter=0;endArrow=none;endFill=0;" edge="1" parent="eqCPospPGm_6_WrWSXjI-1" source="eqCPospPGm_6_WrWSXjI-27" target="eqCPospPGm_6_WrWSXjI-7">
          <mxGeometry relative="1" as="geometry" />
        </mxCell>
        <mxCell id="eqCPospPGm_6_WrWSXjI-27" value="" style="shape=mxgraph.cisco.servers.www_server;html=1;pointerEvents=1;dashed=0;fillColor=#036897;strokeColor=#ffffff;strokeWidth=2;verticalLabelPosition=bottom;verticalAlign=top;align=center;outlineConnect=0;" vertex="1" parent="eqCPospPGm_6_WrWSXjI-1">
          <mxGeometry x="585" y="230" width="66" height="67" as="geometry" />
        </mxCell>
        <mxCell id="eqCPospPGm_6_WrWSXjI-28" style="edgeStyle=orthogonalEdgeStyle;rounded=0;orthogonalLoop=1;jettySize=auto;html=1;exitX=0.5;exitY=1;exitDx=0;exitDy=0;exitPerimeter=0;endArrow=none;endFill=0;" edge="1" parent="eqCPospPGm_6_WrWSXjI-1" source="eqCPospPGm_6_WrWSXjI-29">
          <mxGeometry relative="1" as="geometry">
            <mxPoint x="455" y="350" as="targetPoint" />
          </mxGeometry>
        </mxCell>
        <mxCell id="eqCPospPGm_6_WrWSXjI-29" value="" style="shape=mxgraph.cisco.servers.fileserver;html=1;pointerEvents=1;dashed=0;fillColor=#036897;strokeColor=#ffffff;strokeWidth=2;verticalLabelPosition=bottom;verticalAlign=top;align=center;outlineConnect=0;" vertex="1" parent="eqCPospPGm_6_WrWSXjI-1">
          <mxGeometry x="685" y="230" width="50" height="67" as="geometry" />
        </mxCell>
        <mxCell id="eqCPospPGm_6_WrWSXjI-30" value="Network for local regulator" style="text;html=1;align=center;verticalAlign=middle;whiteSpace=wrap;rounded=0;fontStyle=1;fontSize=24;" vertex="1" parent="eqCPospPGm_6_WrWSXjI-1">
          <mxGeometry x="542.5" y="80" width="335" height="50" as="geometry" />
        </mxCell>
        <mxCell id="eqCPospPGm_6_WrWSXjI-31" value="" style="rounded=0;whiteSpace=wrap;html=1;fontSize=24;fillColor=#f5f5f5;strokeColor=#666666;fontColor=#333333;" vertex="1" parent="eqCPospPGm_6_WrWSXjI-1">
          <mxGeometry x="15" y="70" width="245" height="710" as="geometry" />
        </mxCell>
        <mxCell id="eqCPospPGm_6_WrWSXjI-32" value="LBBW Network" style="text;html=1;align=center;verticalAlign=middle;whiteSpace=wrap;rounded=0;fontStyle=1;fontSize=24;" vertex="1" parent="eqCPospPGm_6_WrWSXjI-1">
          <mxGeometry x="35" y="80" width="210" height="50" as="geometry" />
        </mxCell>
        <mxCell id="eqCPospPGm_6_WrWSXjI-33" value="" style="shape=mxgraph.cisco.switches.workgroup_switch;html=1;pointerEvents=1;dashed=0;fillColor=#036897;strokeColor=#ffffff;strokeWidth=2;verticalLabelPosition=bottom;verticalAlign=top;align=center;outlineConnect=0;" vertex="1" parent="eqCPospPGm_6_WrWSXjI-1">
          <mxGeometry x="90" y="350" width="80" height="50" as="geometry" />
        </mxCell>
        <mxCell id="eqCPospPGm_6_WrWSXjI-34" value="" style="shape=mxgraph.cisco.switches.workgroup_switch;html=1;pointerEvents=1;dashed=0;fillColor=#036897;strokeColor=#ffffff;strokeWidth=2;verticalLabelPosition=bottom;verticalAlign=top;align=center;outlineConnect=0;" vertex="1" parent="eqCPospPGm_6_WrWSXjI-1">
          <mxGeometry x="90" y="507" width="80" height="50" as="geometry" />
        </mxCell>
        <mxCell id="eqCPospPGm_6_WrWSXjI-38" style="edgeStyle=orthogonalEdgeStyle;rounded=0;orthogonalLoop=1;jettySize=auto;html=1;exitX=0.5;exitY=0;exitDx=0;exitDy=0;exitPerimeter=0;entryX=0.87;entryY=0.74;entryDx=0;entryDy=0;entryPerimeter=0;endArrow=none;endFill=0;" edge="1" parent="eqCPospPGm_6_WrWSXjI-1" source="eqCPospPGm_6_WrWSXjI-39" target="eqCPospPGm_6_WrWSXjI-21">
          <mxGeometry relative="1" as="geometry">
            <Array as="points">
              <mxPoint x="533" y="570" />
              <mxPoint x="445" y="570" />
            </Array>
          </mxGeometry>
        </mxCell>
        <mxCell id="eqCPospPGm_6_WrWSXjI-39" value="" style="shape=mxgraph.cisco.servers.www_server;html=1;pointerEvents=1;dashed=0;fillColor=#036897;strokeColor=#ffffff;strokeWidth=2;verticalLabelPosition=bottom;verticalAlign=top;align=center;outlineConnect=0;" vertex="1" parent="eqCPospPGm_6_WrWSXjI-1">
          <mxGeometry x="500" y="590" width="66" height="67" as="geometry" />
        </mxCell>
        <mxCell id="eqCPospPGm_6_WrWSXjI-40" style="edgeStyle=orthogonalEdgeStyle;rounded=0;orthogonalLoop=1;jettySize=auto;html=1;exitX=0.5;exitY=0;exitDx=0;exitDy=0;exitPerimeter=0;entryX=0.87;entryY=0.74;entryDx=0;entryDy=0;entryPerimeter=0;endArrow=none;endFill=0;" edge="1" parent="eqCPospPGm_6_WrWSXjI-1" target="eqCPospPGm_6_WrWSXjI-21">
          <mxGeometry relative="1" as="geometry">
            <Array as="points">
              <mxPoint x="613" y="570" />
              <mxPoint x="445" y="570" />
            </Array>
            <mxPoint x="613" y="590" as="sourcePoint" />
          </mxGeometry>
        </mxCell>
        <mxCell id="eqCPospPGm_6_WrWSXjI-42" style="edgeStyle=orthogonalEdgeStyle;rounded=0;orthogonalLoop=1;jettySize=auto;html=1;exitX=0.5;exitY=0;exitDx=0;exitDy=0;exitPerimeter=0;entryX=0.87;entryY=0.74;entryDx=0;entryDy=0;entryPerimeter=0;endArrow=none;endFill=0;" edge="1" parent="eqCPospPGm_6_WrWSXjI-1" source="eqCPospPGm_6_WrWSXjI-43" target="eqCPospPGm_6_WrWSXjI-21">
          <mxGeometry relative="1" as="geometry">
            <Array as="points">
              <mxPoint x="705" y="570" />
              <mxPoint x="445" y="570" />
            </Array>
          </mxGeometry>
        </mxCell>
        <mxCell id="eqCPospPGm_6_WrWSXjI-43" value="" style="shape=mxgraph.cisco.servers.fileserver;html=1;pointerEvents=1;dashed=0;fillColor=#036897;strokeColor=#ffffff;strokeWidth=2;verticalLabelPosition=bottom;verticalAlign=top;align=center;outlineConnect=0;" vertex="1" parent="eqCPospPGm_6_WrWSXjI-1">
          <mxGeometry x="680" y="590" width="50" height="67" as="geometry" />
        </mxCell>
        <mxCell id="eqCPospPGm_6_WrWSXjI-44" value="Reporting PC" style="text;html=1;align=center;verticalAlign=middle;whiteSpace=wrap;rounded=0;fontStyle=1;fontSize=14;" vertex="1" parent="eqCPospPGm_6_WrWSXjI-1">
          <mxGeometry x="471" y="657" width="129" height="50" as="geometry" />
        </mxCell>
        <mxCell id="eqCPospPGm_6_WrWSXjI-45" value="Reporting PC" style="text;html=1;align=center;verticalAlign=middle;whiteSpace=wrap;rounded=0;fontStyle=1;fontSize=14;" vertex="1" parent="eqCPospPGm_6_WrWSXjI-1">
          <mxGeometry x="520" y="180" width="140" height="40" as="geometry" />
        </mxCell>
        <mxCell id="eqCPospPGm_6_WrWSXjI-57" style="edgeStyle=orthogonalEdgeStyle;rounded=0;orthogonalLoop=1;jettySize=auto;html=1;exitX=0.5;exitY=1;exitDx=0;exitDy=0;exitPerimeter=0;entryX=0.5;entryY=0;entryDx=0;entryDy=0;entryPerimeter=0;" edge="1" parent="eqCPospPGm_6_WrWSXjI-1" source="eqCPospPGm_6_WrWSXjI-46" target="eqCPospPGm_6_WrWSXjI-33">
          <mxGeometry relative="1" as="geometry" />
        </mxCell>
        <mxCell id="eqCPospPGm_6_WrWSXjI-46" value="" style="shape=mxgraph.cisco.servers.fileserver;html=1;pointerEvents=1;dashed=0;fillColor=#036897;strokeColor=#ffffff;strokeWidth=2;verticalLabelPosition=bottom;verticalAlign=top;align=center;outlineConnect=0;" vertex="1" parent="eqCPospPGm_6_WrWSXjI-1">
          <mxGeometry x="105" y="220" width="50" height="67" as="geometry" />
        </mxCell>
        <mxCell id="eqCPospPGm_6_WrWSXjI-52" value="" style="points=[[0.22,0.185,0],[0.5,0,0],[0.78,0.185,0],[0.975,0.49,0],[1,0.73,0],[0.975,0.97,0],[0.5,1,0],[0.025,0.97,0],[0,0.73,0],[0.025,0.49,0]];verticalLabelPosition=bottom;html=1;verticalAlign=top;aspect=fixed;align=center;pointerEvents=1;shape=mxgraph.cisco19.printer;fillColor=#005073;strokeColor=none;" vertex="1" parent="eqCPospPGm_6_WrWSXjI-1">
          <mxGeometry x="593" y="601" width="50" height="45" as="geometry" />
        </mxCell>
        <mxCell id="eqCPospPGm_6_WrWSXjI-53" value="MTS Server" style="text;html=1;align=center;verticalAlign=middle;whiteSpace=wrap;rounded=0;fontStyle=1;fontSize=14;" vertex="1" parent="eqCPospPGm_6_WrWSXjI-1">
          <mxGeometry x="660" y="180" width="140" height="40" as="geometry" />
        </mxCell>
        <mxCell id="eqCPospPGm_6_WrWSXjI-54" value="CFCA Server" style="text;html=1;align=center;verticalAlign=middle;whiteSpace=wrap;rounded=0;fontStyle=1;fontSize=14;" vertex="1" parent="eqCPospPGm_6_WrWSXjI-1">
          <mxGeometry x="651" y="662" width="140" height="40" as="geometry" />
        </mxCell>
        <mxCell id="eqCPospPGm_6_WrWSXjI-55" value="Printer" style="text;html=1;align=center;verticalAlign=middle;whiteSpace=wrap;rounded=0;fontStyle=1;fontSize=14;" vertex="1" parent="eqCPospPGm_6_WrWSXjI-1">
          <mxGeometry x="585" y="652" width="85" height="50" as="geometry" />
        </mxCell>
        <mxCell id="eqCPospPGm_6_WrWSXjI-58" value="Reporting Server" style="text;html=1;align=center;verticalAlign=middle;whiteSpace=wrap;rounded=0;fontStyle=1;fontSize=14;" vertex="1" parent="eqCPospPGm_6_WrWSXjI-1">
          <mxGeometry x="70" y="160" width="140" height="40" as="geometry" />
        </mxCell>
        <mxCell id="eqCPospPGm_6_WrWSXjI-60" style="edgeStyle=none;rounded=0;orthogonalLoop=1;jettySize=auto;html=1;exitX=1;exitY=0.5;exitDx=0;exitDy=0;entryX=0;entryY=0.5;entryDx=0;entryDy=0;startArrow=classic;startFill=1;" edge="1" parent="eqCPospPGm_6_WrWSXjI-1">
          <mxGeometry relative="1" as="geometry">
            <mxPoint x="260" y="532.79" as="sourcePoint" />
            <mxPoint x="330" y="532.79" as="targetPoint" />
          </mxGeometry>
        </mxCell>
        <mxCell id="eqCPospPGm_6_WrWSXjI-61" style="edgeStyle=none;rounded=0;orthogonalLoop=1;jettySize=auto;html=1;exitX=1;exitY=0.5;exitDx=0;exitDy=0;entryX=0;entryY=0.5;entryDx=0;entryDy=0;startArrow=classic;startFill=1;" edge="1" parent="eqCPospPGm_6_WrWSXjI-1">
          <mxGeometry relative="1" as="geometry">
            <mxPoint x="260" y="374.28999999999996" as="sourcePoint" />
            <mxPoint x="330" y="374.28999999999996" as="targetPoint" />
          </mxGeometry>
        </mxCell>
        <mxCell id="eqCPospPGm_6_WrWSXjI-62" value="" style="edgeStyle=orthogonalEdgeStyle;rounded=0;orthogonalLoop=1;jettySize=auto;html=1;fontSize=24;endArrow=none;endFill=0;" edge="1" parent="eqCPospPGm_6_WrWSXjI-1">
          <mxGeometry relative="1" as="geometry">
            <mxPoint x="129.29000000000002" y="401.5" as="sourcePoint" />
            <mxPoint x="129.29000000000002" y="511.5" as="targetPoint" />
          </mxGeometry>
        </mxCell>
      </root>
    </mxGraphModel>
  </diagram>
  <diagram name="Copy of Copy of Page-1" id="3p2o31VdaTfAsmIYrSsL">
    <mxGraphModel dx="868" dy="491" grid="1" gridSize="10" guides="1" tooltips="1" connect="1" arrows="1" fold="1" page="1" pageScale="1" pageWidth="1100" pageHeight="850" background="#ffffff" math="0" shadow="0">
      <root>
        <mxCell id="U75ZrKenNral7NcDj5EW-0" />
        <mxCell id="U75ZrKenNral7NcDj5EW-1" parent="U75ZrKenNral7NcDj5EW-0" />
        <mxCell id="U75ZrKenNral7NcDj5EW-2" value="" style="rounded=0;whiteSpace=wrap;html=1;fillColor=#f5f5f5;strokeColor=#666666;fontColor=#333333;" vertex="1" parent="U75ZrKenNral7NcDj5EW-1">
          <mxGeometry x="330" y="70" width="730" height="710" as="geometry" />
        </mxCell>
        <mxCell id="U75ZrKenNral7NcDj5EW-3" style="edgeStyle=orthogonalEdgeStyle;shape=link;rounded=0;orthogonalLoop=1;jettySize=auto;html=1;entryX=0.5;entryY=0;entryDx=0;entryDy=0;entryPerimeter=0;" edge="1" parent="U75ZrKenNral7NcDj5EW-1" source="U75ZrKenNral7NcDj5EW-4" target="U75ZrKenNral7NcDj5EW-7">
          <mxGeometry relative="1" as="geometry" />
        </mxCell>
        <mxCell id="U75ZrKenNral7NcDj5EW-4" value="" style="shape=mxgraph.cisco.security.ios_firewall;html=1;pointerEvents=1;dashed=0;fillColor=#036897;strokeColor=#ffffff;strokeWidth=2;verticalLabelPosition=bottom;verticalAlign=top;align=center;outlineConnect=0;" vertex="1" parent="U75ZrKenNral7NcDj5EW-1">
          <mxGeometry x="375" y="130" width="80" height="90" as="geometry" />
        </mxCell>
        <mxCell id="U75ZrKenNral7NcDj5EW-5" style="rounded=0;orthogonalLoop=1;jettySize=auto;html=1;entryX=0;entryY=0.5;entryDx=0;entryDy=0;entryPerimeter=0;endArrow=none;endFill=0;" edge="1" parent="U75ZrKenNral7NcDj5EW-1" source="U75ZrKenNral7NcDj5EW-7" target="U75ZrKenNral7NcDj5EW-8">
          <mxGeometry relative="1" as="geometry" />
        </mxCell>
        <mxCell id="U75ZrKenNral7NcDj5EW-6" value="" style="edgeStyle=orthogonalEdgeStyle;rounded=0;orthogonalLoop=1;jettySize=auto;html=1;fontSize=24;endArrow=none;endFill=0;" edge="1" parent="U75ZrKenNral7NcDj5EW-1" source="U75ZrKenNral7NcDj5EW-7" target="U75ZrKenNral7NcDj5EW-21">
          <mxGeometry relative="1" as="geometry" />
        </mxCell>
        <mxCell id="U75ZrKenNral7NcDj5EW-7" value="" style="shape=mxgraph.cisco.switches.workgroup_switch;html=1;pointerEvents=1;dashed=0;fillColor=#036897;strokeColor=#ffffff;strokeWidth=2;verticalLabelPosition=bottom;verticalAlign=top;align=center;outlineConnect=0;" vertex="1" parent="U75ZrKenNral7NcDj5EW-1">
          <mxGeometry x="375" y="350" width="80" height="50" as="geometry" />
        </mxCell>
        <mxCell id="U75ZrKenNral7NcDj5EW-8" value="" style="shape=mxgraph.cisco.routers.router;html=1;pointerEvents=1;dashed=0;fillColor=#036897;strokeColor=#ffffff;strokeWidth=2;verticalLabelPosition=bottom;verticalAlign=top;align=center;outlineConnect=0;" vertex="1" parent="U75ZrKenNral7NcDj5EW-1">
          <mxGeometry x="755" y="348.5" width="78" height="53" as="geometry" />
        </mxCell>
        <mxCell id="U75ZrKenNral7NcDj5EW-9" style="edgeStyle=none;rounded=0;orthogonalLoop=1;jettySize=auto;html=1;exitX=0.13;exitY=0.77;exitDx=0;exitDy=0;exitPerimeter=0;entryX=0.88;entryY=0.1;entryDx=0;entryDy=0;entryPerimeter=0;endArrow=none;endFill=0;" edge="1" parent="U75ZrKenNral7NcDj5EW-1" source="U75ZrKenNral7NcDj5EW-10" target="U75ZrKenNral7NcDj5EW-8">
          <mxGeometry relative="1" as="geometry" />
        </mxCell>
        <mxCell id="U75ZrKenNral7NcDj5EW-10" value="Regulator" style="ellipse;shape=cloud;whiteSpace=wrap;html=1;" vertex="1" parent="U75ZrKenNral7NcDj5EW-1">
          <mxGeometry x="915" y="160" width="120" height="80" as="geometry" />
        </mxCell>
        <mxCell id="U75ZrKenNral7NcDj5EW-11" style="edgeStyle=none;rounded=0;orthogonalLoop=1;jettySize=auto;html=1;exitX=0.13;exitY=0.77;exitDx=0;exitDy=0;exitPerimeter=0;entryX=1;entryY=0.5;entryDx=0;entryDy=0;entryPerimeter=0;endArrow=none;endFill=0;" edge="1" parent="U75ZrKenNral7NcDj5EW-1" source="U75ZrKenNral7NcDj5EW-12" target="U75ZrKenNral7NcDj5EW-8">
          <mxGeometry relative="1" as="geometry" />
        </mxCell>
        <mxCell id="U75ZrKenNral7NcDj5EW-12" value="&lt;span&gt;Regulator&lt;/span&gt;" style="ellipse;shape=cloud;whiteSpace=wrap;html=1;" vertex="1" parent="U75ZrKenNral7NcDj5EW-1">
          <mxGeometry x="915" y="268.5" width="120" height="80" as="geometry" />
        </mxCell>
        <mxCell id="U75ZrKenNral7NcDj5EW-13" style="edgeStyle=none;rounded=0;orthogonalLoop=1;jettySize=auto;html=1;exitX=0.07;exitY=0.4;exitDx=0;exitDy=0;exitPerimeter=0;endArrow=none;endFill=0;" edge="1" parent="U75ZrKenNral7NcDj5EW-1" source="U75ZrKenNral7NcDj5EW-14" target="U75ZrKenNral7NcDj5EW-8">
          <mxGeometry relative="1" as="geometry" />
        </mxCell>
        <mxCell id="U75ZrKenNral7NcDj5EW-14" value="&#xa;&#xa;&lt;span style=&quot;color: rgb(0, 0, 0); font-family: helvetica; font-size: 12px; font-style: normal; font-weight: 400; letter-spacing: normal; text-align: center; text-indent: 0px; text-transform: none; word-spacing: 0px; background-color: rgb(248, 249, 250); display: inline; float: none;&quot;&gt;Regulator&lt;/span&gt;&#xa;&#xa;" style="ellipse;shape=cloud;whiteSpace=wrap;html=1;" vertex="1" parent="U75ZrKenNral7NcDj5EW-1">
          <mxGeometry x="915" y="370" width="120" height="80" as="geometry" />
        </mxCell>
        <mxCell id="U75ZrKenNral7NcDj5EW-15" style="edgeStyle=orthogonalEdgeStyle;shape=link;rounded=0;orthogonalLoop=1;jettySize=auto;html=1;entryX=0.5;entryY=0;entryDx=0;entryDy=0;entryPerimeter=0;" edge="1" parent="U75ZrKenNral7NcDj5EW-1">
          <mxGeometry relative="1" as="geometry">
            <mxPoint x="415" y="540" as="sourcePoint" />
            <mxPoint x="415" y="720" as="targetPoint" />
          </mxGeometry>
        </mxCell>
        <mxCell id="U75ZrKenNral7NcDj5EW-16" style="rounded=0;orthogonalLoop=1;jettySize=auto;html=1;endArrow=none;endFill=0;entryX=0;entryY=0.5;entryDx=0;entryDy=0;entryPerimeter=0;" edge="1" parent="U75ZrKenNral7NcDj5EW-1" target="U75ZrKenNral7NcDj5EW-23">
          <mxGeometry relative="1" as="geometry">
            <mxPoint x="455" y="533" as="sourcePoint" />
            <mxPoint x="833" y="533" as="targetPoint" />
          </mxGeometry>
        </mxCell>
        <mxCell id="U75ZrKenNral7NcDj5EW-17" style="edgeStyle=none;rounded=0;orthogonalLoop=1;jettySize=auto;html=1;exitX=0.96;exitY=0.7;exitDx=0;exitDy=0;exitPerimeter=0;endArrow=none;endFill=0;" edge="1" parent="U75ZrKenNral7NcDj5EW-1" source="U75ZrKenNral7NcDj5EW-18" target="U75ZrKenNral7NcDj5EW-23">
          <mxGeometry relative="1" as="geometry" />
        </mxCell>
        <mxCell id="U75ZrKenNral7NcDj5EW-18" value="&#xa;&#xa;&lt;span style=&quot;color: rgb(0, 0, 0); font-family: helvetica; font-size: 12px; font-style: normal; font-weight: 400; letter-spacing: normal; text-align: center; text-indent: 0px; text-transform: none; word-spacing: 0px; background-color: rgb(248, 249, 250); display: inline; float: none;&quot;&gt;Regulator&lt;/span&gt;&#xa;&#xa;" style="ellipse;shape=cloud;whiteSpace=wrap;html=1;direction=west;" vertex="1" parent="U75ZrKenNral7NcDj5EW-1">
          <mxGeometry x="915" y="500" width="120" height="80" as="geometry" />
        </mxCell>
        <mxCell id="U75ZrKenNral7NcDj5EW-19" style="edgeStyle=none;rounded=0;orthogonalLoop=1;jettySize=auto;html=1;exitX=0.96;exitY=0.7;exitDx=0;exitDy=0;exitPerimeter=0;entryX=1;entryY=0.5;entryDx=0;entryDy=0;entryPerimeter=0;endArrow=none;endFill=0;" edge="1" parent="U75ZrKenNral7NcDj5EW-1" source="U75ZrKenNral7NcDj5EW-20" target="U75ZrKenNral7NcDj5EW-23">
          <mxGeometry relative="1" as="geometry" />
        </mxCell>
        <mxCell id="U75ZrKenNral7NcDj5EW-20" value="&lt;span&gt;Regulator&lt;/span&gt;" style="ellipse;shape=cloud;whiteSpace=wrap;html=1;direction=west;" vertex="1" parent="U75ZrKenNral7NcDj5EW-1">
          <mxGeometry x="915" y="608.5" width="120" height="80" as="geometry" />
        </mxCell>
        <mxCell id="U75ZrKenNral7NcDj5EW-21" value="" style="shape=mxgraph.cisco.switches.workgroup_switch;html=1;pointerEvents=1;dashed=0;fillColor=#036897;strokeColor=#ffffff;strokeWidth=2;verticalLabelPosition=bottom;verticalAlign=top;align=center;outlineConnect=0;" vertex="1" parent="U75ZrKenNral7NcDj5EW-1">
          <mxGeometry x="375" y="510" width="80" height="50" as="geometry" />
        </mxCell>
        <mxCell id="U75ZrKenNral7NcDj5EW-22" value="" style="shape=mxgraph.cisco.security.ios_firewall;html=1;pointerEvents=1;dashed=0;fillColor=#036897;strokeColor=#ffffff;strokeWidth=2;verticalLabelPosition=bottom;verticalAlign=top;align=center;outlineConnect=0;" vertex="1" parent="U75ZrKenNral7NcDj5EW-1">
          <mxGeometry x="375" y="650" width="80" height="90" as="geometry" />
        </mxCell>
        <mxCell id="U75ZrKenNral7NcDj5EW-23" value="" style="shape=mxgraph.cisco.routers.router;html=1;pointerEvents=1;dashed=0;fillColor=#036897;strokeColor=#ffffff;strokeWidth=2;verticalLabelPosition=bottom;verticalAlign=top;align=center;outlineConnect=0;" vertex="1" parent="U75ZrKenNral7NcDj5EW-1">
          <mxGeometry x="755" y="507" width="78" height="53" as="geometry" />
        </mxCell>
        <mxCell id="U75ZrKenNral7NcDj5EW-24" style="edgeStyle=orthogonalEdgeStyle;rounded=0;orthogonalLoop=1;jettySize=auto;html=1;exitX=0.5;exitY=1;exitDx=0;exitDy=0;exitPerimeter=0;entryX=1;entryY=0;entryDx=0;entryDy=0;entryPerimeter=0;endArrow=none;endFill=0;" edge="1" parent="U75ZrKenNral7NcDj5EW-1" source="U75ZrKenNral7NcDj5EW-25" target="U75ZrKenNral7NcDj5EW-7">
          <mxGeometry relative="1" as="geometry" />
        </mxCell>
        <mxCell id="U75ZrKenNral7NcDj5EW-25" value="" style="shape=mxgraph.cisco.servers.www_server;html=1;pointerEvents=1;dashed=0;fillColor=#036897;strokeColor=#ffffff;strokeWidth=2;verticalLabelPosition=bottom;verticalAlign=top;align=center;outlineConnect=0;" vertex="1" parent="U75ZrKenNral7NcDj5EW-1">
          <mxGeometry x="505" y="230" width="66" height="67" as="geometry" />
        </mxCell>
        <mxCell id="U75ZrKenNral7NcDj5EW-26" style="edgeStyle=orthogonalEdgeStyle;rounded=0;orthogonalLoop=1;jettySize=auto;html=1;exitX=0.5;exitY=1;exitDx=0;exitDy=0;exitPerimeter=0;entryX=1;entryY=0;entryDx=0;entryDy=0;entryPerimeter=0;endArrow=none;endFill=0;" edge="1" parent="U75ZrKenNral7NcDj5EW-1" source="U75ZrKenNral7NcDj5EW-27" target="U75ZrKenNral7NcDj5EW-7">
          <mxGeometry relative="1" as="geometry" />
        </mxCell>
        <mxCell id="U75ZrKenNral7NcDj5EW-27" value="" style="shape=mxgraph.cisco.servers.www_server;html=1;pointerEvents=1;dashed=0;fillColor=#036897;strokeColor=#ffffff;strokeWidth=2;verticalLabelPosition=bottom;verticalAlign=top;align=center;outlineConnect=0;" vertex="1" parent="U75ZrKenNral7NcDj5EW-1">
          <mxGeometry x="585" y="230" width="66" height="67" as="geometry" />
        </mxCell>
        <mxCell id="U75ZrKenNral7NcDj5EW-28" style="edgeStyle=orthogonalEdgeStyle;rounded=0;orthogonalLoop=1;jettySize=auto;html=1;exitX=0.5;exitY=1;exitDx=0;exitDy=0;exitPerimeter=0;endArrow=none;endFill=0;" edge="1" parent="U75ZrKenNral7NcDj5EW-1" source="U75ZrKenNral7NcDj5EW-29">
          <mxGeometry relative="1" as="geometry">
            <mxPoint x="455" y="350" as="targetPoint" />
          </mxGeometry>
        </mxCell>
        <mxCell id="U75ZrKenNral7NcDj5EW-29" value="" style="shape=mxgraph.cisco.servers.fileserver;html=1;pointerEvents=1;dashed=0;fillColor=#036897;strokeColor=#ffffff;strokeWidth=2;verticalLabelPosition=bottom;verticalAlign=top;align=center;outlineConnect=0;" vertex="1" parent="U75ZrKenNral7NcDj5EW-1">
          <mxGeometry x="685" y="230" width="50" height="67" as="geometry" />
        </mxCell>
        <mxCell id="U75ZrKenNral7NcDj5EW-30" value="Network for local regulator" style="text;html=1;align=center;verticalAlign=middle;whiteSpace=wrap;rounded=0;fontStyle=1;fontSize=24;" vertex="1" parent="U75ZrKenNral7NcDj5EW-1">
          <mxGeometry x="542.5" y="80" width="335" height="50" as="geometry" />
        </mxCell>
        <mxCell id="U75ZrKenNral7NcDj5EW-53" style="edgeStyle=none;rounded=0;orthogonalLoop=1;jettySize=auto;html=1;exitX=1;exitY=0.5;exitDx=0;exitDy=0;entryX=0;entryY=0.5;entryDx=0;entryDy=0;startArrow=classic;startFill=1;" edge="1" parent="U75ZrKenNral7NcDj5EW-1" source="U75ZrKenNral7NcDj5EW-31" target="U75ZrKenNral7NcDj5EW-2">
          <mxGeometry relative="1" as="geometry" />
        </mxCell>
        <mxCell id="U75ZrKenNral7NcDj5EW-31" value="" style="rounded=0;whiteSpace=wrap;html=1;fontSize=24;fillColor=#f5f5f5;strokeColor=#666666;fontColor=#333333;" vertex="1" parent="U75ZrKenNral7NcDj5EW-1">
          <mxGeometry x="15" y="70" width="205" height="710" as="geometry" />
        </mxCell>
        <mxCell id="U75ZrKenNral7NcDj5EW-32" value="LBBW Network" style="text;html=1;align=center;verticalAlign=middle;whiteSpace=wrap;rounded=0;fontStyle=1;fontSize=24;" vertex="1" parent="U75ZrKenNral7NcDj5EW-1">
          <mxGeometry x="15" y="80" width="210" height="50" as="geometry" />
        </mxCell>
        <mxCell id="U75ZrKenNral7NcDj5EW-33" value="" style="shape=mxgraph.cisco.switches.workgroup_switch;html=1;pointerEvents=1;dashed=0;fillColor=#036897;strokeColor=#ffffff;strokeWidth=2;verticalLabelPosition=bottom;verticalAlign=top;align=center;outlineConnect=0;" vertex="1" parent="U75ZrKenNral7NcDj5EW-1">
          <mxGeometry x="90" y="350" width="80" height="50" as="geometry" />
        </mxCell>
        <mxCell id="U75ZrKenNral7NcDj5EW-34" value="" style="shape=mxgraph.cisco.switches.workgroup_switch;html=1;pointerEvents=1;dashed=0;fillColor=#036897;strokeColor=#ffffff;strokeWidth=2;verticalLabelPosition=bottom;verticalAlign=top;align=center;outlineConnect=0;" vertex="1" parent="U75ZrKenNral7NcDj5EW-1">
          <mxGeometry x="90" y="507" width="80" height="50" as="geometry" />
        </mxCell>
        <mxCell id="U75ZrKenNral7NcDj5EW-35" style="edgeStyle=orthogonalEdgeStyle;rounded=0;orthogonalLoop=1;jettySize=auto;html=1;exitX=0.5;exitY=0;exitDx=0;exitDy=0;exitPerimeter=0;entryX=0.87;entryY=0.74;entryDx=0;entryDy=0;entryPerimeter=0;endArrow=none;endFill=0;" edge="1" parent="U75ZrKenNral7NcDj5EW-1" source="U75ZrKenNral7NcDj5EW-36" target="U75ZrKenNral7NcDj5EW-21">
          <mxGeometry relative="1" as="geometry">
            <Array as="points">
              <mxPoint x="533" y="570" />
              <mxPoint x="445" y="570" />
            </Array>
          </mxGeometry>
        </mxCell>
        <mxCell id="U75ZrKenNral7NcDj5EW-36" value="" style="shape=mxgraph.cisco.servers.www_server;html=1;pointerEvents=1;dashed=0;fillColor=#036897;strokeColor=#ffffff;strokeWidth=2;verticalLabelPosition=bottom;verticalAlign=top;align=center;outlineConnect=0;" vertex="1" parent="U75ZrKenNral7NcDj5EW-1">
          <mxGeometry x="500" y="590" width="66" height="67" as="geometry" />
        </mxCell>
        <mxCell id="U75ZrKenNral7NcDj5EW-37" style="edgeStyle=orthogonalEdgeStyle;rounded=0;orthogonalLoop=1;jettySize=auto;html=1;exitX=0.5;exitY=0;exitDx=0;exitDy=0;exitPerimeter=0;entryX=0.87;entryY=0.74;entryDx=0;entryDy=0;entryPerimeter=0;endArrow=none;endFill=0;" edge="1" parent="U75ZrKenNral7NcDj5EW-1" target="U75ZrKenNral7NcDj5EW-21">
          <mxGeometry relative="1" as="geometry">
            <Array as="points">
              <mxPoint x="613" y="570" />
              <mxPoint x="445" y="570" />
            </Array>
            <mxPoint x="613" y="590" as="sourcePoint" />
          </mxGeometry>
        </mxCell>
        <mxCell id="U75ZrKenNral7NcDj5EW-38" style="edgeStyle=orthogonalEdgeStyle;rounded=0;orthogonalLoop=1;jettySize=auto;html=1;exitX=0.5;exitY=0;exitDx=0;exitDy=0;exitPerimeter=0;entryX=0.87;entryY=0.74;entryDx=0;entryDy=0;entryPerimeter=0;endArrow=none;endFill=0;" edge="1" parent="U75ZrKenNral7NcDj5EW-1" source="U75ZrKenNral7NcDj5EW-39" target="U75ZrKenNral7NcDj5EW-21">
          <mxGeometry relative="1" as="geometry">
            <Array as="points">
              <mxPoint x="705" y="570" />
              <mxPoint x="445" y="570" />
            </Array>
          </mxGeometry>
        </mxCell>
        <mxCell id="U75ZrKenNral7NcDj5EW-39" value="" style="shape=mxgraph.cisco.servers.fileserver;html=1;pointerEvents=1;dashed=0;fillColor=#036897;strokeColor=#ffffff;strokeWidth=2;verticalLabelPosition=bottom;verticalAlign=top;align=center;outlineConnect=0;" vertex="1" parent="U75ZrKenNral7NcDj5EW-1">
          <mxGeometry x="680" y="590" width="50" height="67" as="geometry" />
        </mxCell>
        <mxCell id="U75ZrKenNral7NcDj5EW-40" value="Reporting PC" style="text;html=1;align=center;verticalAlign=middle;whiteSpace=wrap;rounded=0;fontStyle=1;fontSize=14;" vertex="1" parent="U75ZrKenNral7NcDj5EW-1">
          <mxGeometry x="471" y="657" width="129" height="50" as="geometry" />
        </mxCell>
        <mxCell id="U75ZrKenNral7NcDj5EW-41" value="Reporting PC" style="text;html=1;align=center;verticalAlign=middle;whiteSpace=wrap;rounded=0;fontStyle=1;fontSize=14;" vertex="1" parent="U75ZrKenNral7NcDj5EW-1">
          <mxGeometry x="520" y="180" width="140" height="40" as="geometry" />
        </mxCell>
        <mxCell id="U75ZrKenNral7NcDj5EW-42" style="edgeStyle=orthogonalEdgeStyle;rounded=0;orthogonalLoop=1;jettySize=auto;html=1;exitX=0.5;exitY=1;exitDx=0;exitDy=0;exitPerimeter=0;entryX=0.5;entryY=0;entryDx=0;entryDy=0;entryPerimeter=0;" edge="1" parent="U75ZrKenNral7NcDj5EW-1" source="U75ZrKenNral7NcDj5EW-43" target="U75ZrKenNral7NcDj5EW-33">
          <mxGeometry relative="1" as="geometry" />
        </mxCell>
        <mxCell id="U75ZrKenNral7NcDj5EW-43" value="" style="shape=mxgraph.cisco.servers.fileserver;html=1;pointerEvents=1;dashed=0;fillColor=#036897;strokeColor=#ffffff;strokeWidth=2;verticalLabelPosition=bottom;verticalAlign=top;align=center;outlineConnect=0;" vertex="1" parent="U75ZrKenNral7NcDj5EW-1">
          <mxGeometry x="105" y="220" width="50" height="67" as="geometry" />
        </mxCell>
        <mxCell id="U75ZrKenNral7NcDj5EW-44" value="" style="points=[[0.22,0.185,0],[0.5,0,0],[0.78,0.185,0],[0.975,0.49,0],[1,0.73,0],[0.975,0.97,0],[0.5,1,0],[0.025,0.97,0],[0,0.73,0],[0.025,0.49,0]];verticalLabelPosition=bottom;html=1;verticalAlign=top;aspect=fixed;align=center;pointerEvents=1;shape=mxgraph.cisco19.printer;fillColor=#005073;strokeColor=none;" vertex="1" parent="U75ZrKenNral7NcDj5EW-1">
          <mxGeometry x="593" y="601" width="50" height="45" as="geometry" />
        </mxCell>
        <mxCell id="U75ZrKenNral7NcDj5EW-45" value="MTS Server" style="text;html=1;align=center;verticalAlign=middle;whiteSpace=wrap;rounded=0;fontStyle=1;fontSize=14;" vertex="1" parent="U75ZrKenNral7NcDj5EW-1">
          <mxGeometry x="660" y="180" width="140" height="40" as="geometry" />
        </mxCell>
        <mxCell id="U75ZrKenNral7NcDj5EW-46" value="CFCA Server" style="text;html=1;align=center;verticalAlign=middle;whiteSpace=wrap;rounded=0;fontStyle=1;fontSize=14;" vertex="1" parent="U75ZrKenNral7NcDj5EW-1">
          <mxGeometry x="651" y="662" width="140" height="40" as="geometry" />
        </mxCell>
        <mxCell id="U75ZrKenNral7NcDj5EW-47" value="Printer" style="text;html=1;align=center;verticalAlign=middle;whiteSpace=wrap;rounded=0;fontStyle=1;fontSize=14;" vertex="1" parent="U75ZrKenNral7NcDj5EW-1">
          <mxGeometry x="585" y="652" width="85" height="50" as="geometry" />
        </mxCell>
        <mxCell id="U75ZrKenNral7NcDj5EW-48" value="Reporting Server" style="text;html=1;align=center;verticalAlign=middle;whiteSpace=wrap;rounded=0;fontStyle=1;fontSize=14;" vertex="1" parent="U75ZrKenNral7NcDj5EW-1">
          <mxGeometry x="50" y="160" width="140" height="40" as="geometry" />
        </mxCell>
        <mxCell id="U75ZrKenNral7NcDj5EW-51" value="" style="edgeStyle=orthogonalEdgeStyle;rounded=0;orthogonalLoop=1;jettySize=auto;html=1;fontSize=24;endArrow=none;endFill=0;" edge="1" parent="U75ZrKenNral7NcDj5EW-1">
          <mxGeometry relative="1" as="geometry">
            <mxPoint x="129.29000000000002" y="401.5" as="sourcePoint" />
            <mxPoint x="129.29000000000002" y="511.5" as="targetPoint" />
          </mxGeometry>
        </mxCell>
        <mxCell id="U75ZrKenNral7NcDj5EW-52" value="" style="fontColor=#0066CC;verticalAlign=top;verticalLabelPosition=bottom;labelPosition=center;align=center;html=1;outlineConnect=0;fillColor=#CCCCCC;strokeColor=#6881B3;gradientColor=none;gradientDirection=north;strokeWidth=2;shape=mxgraph.networks.usb_stick;" vertex="1" parent="U75ZrKenNral7NcDj5EW-1">
          <mxGeometry x="270" y="405" width="20" height="40" as="geometry" />
        </mxCell>
        <mxCell id="U75ZrKenNral7NcDj5EW-54" value="Manually Data transfer" style="text;html=1;strokeColor=none;fillColor=none;align=center;verticalAlign=middle;whiteSpace=wrap;rounded=0;fontStyle=1" vertex="1" parent="U75ZrKenNral7NcDj5EW-1">
          <mxGeometry x="240" y="460" width="80" height="40" as="geometry" />
        </mxCell>
      </root>
    </mxGraphModel>
  </diagram>
</mxfile>
